<svg xmlns="http://www.w3.org/2000/svg" xmlns:xlink="http://www.w3.org/1999/xlink" viewBox="0 0 244.1 204.54"><defs><style>.cls-1,.cls-6{mix-blend-mode:multiply;}.cls-1{fill:url(#linear-gradient);}.cls-10,.cls-2{fill:url(#linear-gradient-2);}.cls-2{clip-path:url(#clip-path);}.cls-3{isolation:isolate;}.cls-4{fill:url(#linear-gradient-3);}.cls-5{fill:#ebecf0;}.cls-6{fill:url(#linear-gradient-4);}.cls-7{fill:#253858;}.cls-8{fill:#a5adba;}.cls-9{fill:#0065ff;}.cls-11{fill:#ffc400;}.cls-12{fill:#ffab00;}.cls-13,.cls-14{fill:none;stroke-linecap:round;stroke-miterlimit:10;stroke-width:2px;}.cls-13{stroke:#344563;}.cls-14{stroke:#5e6c84;}</style><linearGradient id="linear-gradient" x1="68.17" y1="189.85" x2="148.11" y2="109.91" gradientUnits="userSpaceOnUse"><stop offset="0" stop-color="#ebecf0" stop-opacity="0.1"/><stop offset="1" stop-color="#ebecf0"/></linearGradient><linearGradient id="linear-gradient-2" x1="162.1" y1="110.9" x2="64.76" y2="156.29" gradientUnits="userSpaceOnUse"><stop offset="0" stop-color="#ffd740"/><stop offset="1" stop-color="#ffab00"/></linearGradient><clipPath id="clip-path"><path id="_Polygon_" data-name="&lt;Polygon&gt;" class="cls-1" d="M117.5,79.83l47.32,82A10.81,10.81,0,0,1,155.47,178H60.82a10.81,10.81,0,0,1-9.36-16.21l47.32-82A10.81,10.81,0,0,1,117.5,79.83Z"/></clipPath><clipPath id="clip-path-2"><path id="_Polygon_2" data-name="&lt;Polygon&gt;" class="cls-2" d="M134.26,70.82l47.32,82A10.81,10.81,0,0,1,172.22,169H77.57a10.81,10.81,0,0,1-9.36-16.21l47.32-82A10.81,10.81,0,0,1,134.26,70.82Z"/></clipPath><linearGradient id="linear-gradient-3" x1="14.8" y1="219.34" x2="229.01" y2="5.13" gradientUnits="userSpaceOnUse"><stop offset="0" stop-color="#c1c7d0"/><stop offset="1" stop-color="#fafbfc"/></linearGradient><linearGradient id="linear-gradient-4" x1="0.29" y1="60.31" x2="244.1" y2="60.31" xlink:href="#linear-gradient"/></defs><title>Error </title><g class="cls-3"><g id="Layer_2" data-name="Layer 2"><g id="Software"><rect id="_Rectangle_" data-name="&lt;Rectangle&gt;" class="cls-4" y="19.92" width="243.81" height="184.62"/><rect class="cls-5" y="19.92" width="243.81" height="19.67"/><path class="cls-6" d="M244.1,56.68c-69.18-6-108.85.91-132.52,8.71-4.66,1.53-10.66,3.75-20.52,6.35C55.43,81.15,22.46,81.68.29,80.67V39.59H244.1Z"/><circle class="cls-7" cx="15.69" cy="29.69" r="5.11"/><circle class="cls-8" cx="32.37" cy="29.69" r="5.11"/><circle class="cls-9" cx="49.05" cy="29.69" r="5.11"/><path id="_Polygon_3" data-name="&lt;Polygon&gt;" class="cls-1" d="M117.5,79.83l47.32,82A10.81,10.81,0,0,1,155.47,178H60.82a10.81,10.81,0,0,1-9.36-16.21l47.32-82A10.81,10.81,0,0,1,117.5,79.83Z"/><path id="_Polygon_4" data-name="&lt;Polygon&gt;" class="cls-10" d="M134.26,70.82l47.32,82A10.81,10.81,0,0,1,172.22,169H77.57a10.81,10.81,0,0,1-9.36-16.21l47.32-82A10.81,10.81,0,0,1,134.26,70.82Z"/><path class="cls-7" d="M128.87,130.33l2.05-31.59a6.54,6.54,0,0,0-6.53-7h0a6.54,6.54,0,0,0-6.53,7l2.05,31.59a4.49,4.49,0,0,0,4.48,4.2h0A4.49,4.49,0,0,0,128.87,130.33Z"/><path class="cls-7" d="M117.59,147.1a6.79,6.79,0,0,0,7.4,6.82,6.89,6.89,0,0,0-.64-13.76A6.87,6.87,0,0,0,117.59,147.1Z"/><path class="cls-11" d="M134.63,26.76,127.33.44a.6.6,0,0,0-1.17.05l-4.59,24.72-5.71-1.06a.6.6,0,0,0-.69.75l7.3,26.32a.6.6,0,0,0,1.17-.05l4.59-24.72,5.71,1.06A.6.6,0,0,0,134.63,26.76Z"/><path class="cls-12" d="M108.44,41.19,97.73,32.76a.26.26,0,0,0-.4.32l5.44,11.26-2.62,1.27a.26.26,0,0,0,0,.45l10.71,8.42a.26.26,0,0,0,.4-.32L105.77,42.9l2.62-1.27A.26.26,0,0,0,108.44,41.19Z"/><path class="cls-13" d="M157.72,36c-1.15,1.57-10.83-5.52-12-3.95s8.53,8.66,7.38,10.23-10.83-5.52-12-3.94,8.53,8.66,7.38,10.23-10.84-5.51-12-3.94,8.53,8.66,7.38,10.24"/><path class="cls-14" d="M162.42,63.22c-1.44,1.31-6.95-4.71-8.38-3.39s4.07,7.34,2.63,8.65-6.95-4.71-8.38-3.39c-.67.61.16,2.23,1.1,3.93"/><path class="cls-14" d="M88.43,63.09c1.79.76,5-6.77,6.76-6s-1.37,8.28.42,9,5-6.77,6.76-6c.83.35.6,2.16.29,4.07"/></g></g></g></svg>